<svg width="16" height="16" viewBox="0 0 16 16" fill="none" xmlns="http://www.w3.org/2000/svg">
<g clip-path="url(#clip0_16918_541)">
<path d="M16 14.6667V16H9.33333V14.6667C9.33333 13.564 10.2307 12.6667 11.3333 12.6667H14C15.1027 12.6667 16 13.564 16 14.6667ZM9.66667 10.3333C9.66667 9.902 9.762 9.494 9.92667 9.12267C9.52923 9.25926 9.11225 9.33041 8.692 9.33333H7.30733C6.60805 9.33248 5.92179 9.14416 5.32 8.788C4.71842 9.14408 4.03239 9.33239 3.33333 9.33333H2.66667C1.96427 9.33317 1.27436 9.14758 0.666667 8.79533V14C0.666667 15.1027 1.564 16 2.66667 16H8V14.6667C8.00075 14.0255 8.18602 13.3981 8.53369 12.8594C8.88136 12.3207 9.37674 11.8934 9.96067 11.6287C9.76646 11.2245 9.66597 10.7817 9.66667 10.3333ZM14.4127 0H11.3333V3.33333H10V0H6V3.33333H4.66667V0H1.58733L0 4.63267V5.35933C0 6.816 1.196 8 2.66667 8H3.33333C4.12933 8 4.836 7.63467 5.32067 7.07067C5.80533 7.63533 6.51133 8 7.308 8H8.69267C9.48867 8 10.1953 7.63533 10.68 7.07067C10.8753 7.298 11.114 7.48067 11.372 7.63267C11.8339 7.40872 12.3457 7.30786 12.858 7.33986C13.3703 7.37187 13.8656 7.53565 14.296 7.81533C15.2913 7.432 16.0007 6.47867 16.0007 5.35933V4.63267L14.4133 0H14.4127ZM11 10.3333C11 11.2527 11.7473 12 12.6667 12C13.586 12 14.3333 11.2527 14.3333 10.3333C14.3333 9.414 13.586 8.66667 12.6667 8.66667C11.7473 8.66667 11 9.414 11 10.3333Z" fill="currentColor"/>
</g>
<defs>
<clipPath id="clip0_16918_541">
<rect width="16" height="16" fill="white"/>
</clipPath>
</defs>
</svg>
