<svg width="16" height="16" viewBox="0 0 16 16" fill="none" xmlns="http://www.w3.org/2000/svg">
<path d="M12.6666 12C11.7473 12 10.9999 11.2527 10.9999 10.3333C10.9999 9.414 11.7473 8.66667 12.6666 8.66667C13.5859 8.66667 14.3333 9.414 14.3333 10.3333C14.3333 11.2527 13.5859 12 12.6666 12ZM13.9999 2.66667H3.33327C3.0539 2.66466 2.77806 2.60406 2.52358 2.48876C2.2691 2.37346 2.04166 2.20605 1.85594 1.99733C2.04176 1.78913 2.26935 1.6224 2.52389 1.508C2.77843 1.3936 3.05421 1.33408 3.33327 1.33333H15.3333C15.5101 1.33333 15.6797 1.2631 15.8047 1.13807C15.9297 1.01305 15.9999 0.843478 15.9999 0.666667C15.9999 0.489856 15.9297 0.320286 15.8047 0.195262C15.6797 0.0702379 15.5101 0 15.3333 0L3.33327 0C2.44922 0 1.60137 0.351189 0.97625 0.976311C0.351128 1.60143 -6.10352e-05 2.44928 -6.10352e-05 3.33333L-6.10352e-05 10C-6.10352e-05 10.8841 0.351128 11.7319 0.97625 12.357C1.60137 12.9821 2.44922 13.3333 3.33327 13.3333H8.66661C8.84342 13.3333 9.01299 13.2631 9.13801 13.1381C9.26303 13.013 9.33327 12.8435 9.33327 12.6667C9.33327 12.4899 9.26303 12.3203 9.13801 12.1953C9.01299 12.0702 8.84342 12 8.66661 12H3.33327C2.80284 12 2.29413 11.7893 1.91906 11.4142C1.54399 11.0391 1.33327 10.5304 1.33327 10V3.33333L1.33661 3.332C1.91265 3.76428 2.61307 3.99861 3.33327 4H13.9999C14.1768 4 14.3463 4.07024 14.4713 4.19526C14.5964 4.32029 14.6666 4.48986 14.6666 4.66667V8C14.6666 8.17681 14.7368 8.34638 14.8619 8.47141C14.9869 8.59643 15.1565 8.66667 15.3333 8.66667C15.5101 8.66667 15.6797 8.59643 15.8047 8.47141C15.9297 8.34638 15.9999 8.17681 15.9999 8V4.66667C15.9999 4.13623 15.7892 3.62753 15.4142 3.25245C15.0391 2.87738 14.5304 2.66667 13.9999 2.66667ZM12.6666 12.6667C11.1113 12.6667 9.74994 13.692 9.35594 15.1607C9.31015 15.3315 9.33408 15.5135 9.42247 15.6666C9.51086 15.8198 9.65647 15.9315 9.82727 15.9773C9.99807 16.0231 10.1801 15.9992 10.3332 15.9108C10.4864 15.8224 10.5981 15.6768 10.6439 15.506C10.8819 14.6193 11.7139 14 12.6666 14C13.6193 14 14.4513 14.6193 14.6893 15.506C14.712 15.5906 14.7511 15.6698 14.8045 15.7393C14.8579 15.8087 14.9244 15.867 15.0002 15.9107C15.0761 15.9544 15.1598 15.9828 15.2467 15.9942C15.3335 16.0056 15.4217 15.9997 15.5063 15.977C15.5908 15.9543 15.6701 15.9151 15.7396 15.8618C15.809 15.8084 15.8672 15.7419 15.911 15.666C15.9547 15.5902 15.9831 15.5064 15.9945 15.4196C16.0058 15.3328 16 15.2446 15.9773 15.16C15.5833 13.6913 14.2219 12.6667 12.6666 12.6667Z" fill="currentColor"/>
</svg>
