<svg width="16" height="16" viewBox="0 0 16 16" fill="none" xmlns="http://www.w3.org/2000/svg">
<path d="M16 10.6712V14.0046C16 14.535 15.7893 15.0437 15.4142 15.4188C15.0391 15.7939 14.5304 16.0046 14 16.0046H10.6667C8.69667 16.0046 6.97667 14.9279 6.05333 13.3352C6.55591 13.3316 7.05678 13.2762 7.548 13.1699C7.92183 13.6382 8.39628 14.0163 8.93616 14.2762C9.47603 14.536 10.0675 14.6711 10.6667 14.6712H14C14.1768 14.6712 14.3464 14.601 14.4714 14.476C14.5964 14.351 14.6667 14.1814 14.6667 14.0046V10.6712C14.6665 10.0721 14.5315 9.48061 14.2716 8.94073C14.0117 8.40086 13.6336 7.92641 13.1653 7.55257C13.2693 7.06991 13.3267 6.57057 13.3307 6.05791C14.9233 6.98124 16 8.70124 16 10.6712ZM5.42533 12.0046H2.44067C1.79316 12.0033 1.17258 11.7453 0.715042 11.2872C0.2575 10.829 0.000351877 10.2081 0 9.56057L0 6.20191C0 3.06391 2.54867 0.23324 5.566 0.0199065C9.10933 -0.31676 12.3167 2.89657 11.9847 6.43857C11.764 9.55991 8.88333 12.0046 5.42533 12.0046ZM10.6547 6.34524C10.8993 3.71191 8.63 1.28057 5.992 1.33791C3.502 1.31257 1.334 3.61991 1.33333 6.20191V9.56057C1.33333 10.1732 1.83 10.6712 2.44067 10.6712H5.42533C8.14067 10.6712 10.4867 8.73057 10.6547 6.34524ZM6 5.00457C5.7347 5.00466 5.48029 5.11014 5.29276 5.2978C5.10522 5.48546 4.99991 5.73994 5 6.00524C5.00009 6.27055 5.10557 6.52495 5.29323 6.71249C5.48089 6.90002 5.73536 7.00533 6.00067 7.00524C6.13203 7.0052 6.2621 6.97928 6.38345 6.92897C6.5048 6.87866 6.61505 6.80493 6.70791 6.71201C6.80077 6.61909 6.87442 6.50879 6.92465 6.38741C6.97488 6.26603 7.00071 6.13594 7.00067 6.00457C7.00062 5.87321 6.97471 5.74314 6.92439 5.62179C6.87408 5.50044 6.80036 5.39019 6.70744 5.29733C6.61452 5.20447 6.50422 5.13082 6.38284 5.08059C6.26145 5.03036 6.13137 5.00453 6 5.00457ZM3.33333 5.00457C3.06803 5.00466 2.81362 5.11014 2.62609 5.2978C2.43855 5.48546 2.33325 5.73994 2.33333 6.00524C2.33342 6.27055 2.4389 6.52495 2.62656 6.71249C2.81422 6.90002 3.0687 7.00533 3.334 7.00524C3.5993 7.00515 3.85371 6.89968 4.04124 6.71201C4.22878 6.52435 4.33409 6.26988 4.334 6.00457C4.33391 5.73927 4.22844 5.48487 4.04077 5.29733C3.85311 5.10979 3.59864 5.00449 3.33333 5.00457ZM8.66667 5.00457C8.40136 5.00466 8.14696 5.11014 7.95942 5.2978C7.77189 5.48546 7.66658 5.73994 7.66667 6.00524C7.66676 6.27055 7.77223 6.52495 7.95989 6.71249C8.14755 6.90002 8.40203 7.00533 8.66733 7.00524C8.7987 7.0052 8.92877 6.97928 9.05012 6.92897C9.17147 6.87866 9.28172 6.80493 9.37458 6.71201C9.46744 6.61909 9.54108 6.50879 9.59132 6.38741C9.64155 6.26603 9.66738 6.13594 9.66733 6.00457C9.66729 5.87321 9.64137 5.74314 9.59106 5.62179C9.54075 5.50044 9.46703 5.39019 9.37411 5.29733C9.28119 5.20447 9.17089 5.13082 9.0495 5.08059C8.92812 5.03036 8.79803 5.00453 8.66667 5.00457Z" fill="currentColor"/>
</svg>
